<?xml version="1.0" encoding="UTF-8"?><svg id="a" xmlns="http://www.w3.org/2000/svg" viewBox="0 0 1962.7788628 626.2634417"><defs><style>.c{fill:#ff7300;}</style></defs><path class="c" d="M.0012579,5.3387782h50.2974545v285.7683509H.0012579V5.3387782ZM345.0575573,5.3387782h48.7725409v285.7683509h-64.0124041L149.5901127,59.4875146v231.6196145h-48.7725326V5.3387782h65.5373136l178.7026636,228.9315271V5.3387782ZM677.1255146,5.3387782h50.2943595v285.7683509h-50.2943595v-121.9251043h-182.1329785v121.9251043h-50.2943263V5.3387782h50.2943263v119.6423847h182.1329785V5.3387782ZM884.5896315,5.3387782l-137.1680501,285.7683509h53.7246081l30.6169497-65.5310739h168.530314l30.613834,65.5310739h53.7246081L947.4607297,5.3387782h-62.8710982ZM851.162987,184.044574l64.8637515-138.8582654,64.8637515,138.8582654h-129.727503ZM1154.737706,246.9124902h192.8027124v44.1946389h-243.1001876V5.3387782h50.2974752v241.573712ZM1292.4779835,5.3387782h286.5323925v44.1946472h-118.1190828v241.5737038h-50.2943595V49.5334253h-118.1190828V5.3387782h.0001326ZM1876.6729005,218.4700438l68.4464781-86.1811339h-56.3759894l-45.851038,57.684795-55.3738233-46.55127c38.4605478-12.7506975,81.1724801-28.8147656,81.1724801-71.6497544S1833.8969775,0,1775.0234322,0c-66.864844,0-95.2038014,36.8926578-95.2038014,71.1814391,0,31.6899632,16.3803019,45.5691701,28.3402504,58.5498512-15.2141018,5.942038-90.38014,22.09799-90.38014,82.6598276,0,61.8075391,49.9831674,77.0675724,85.7759535,77.0675724h84.238687c31.726808,0,56.7826892-31.0751753,63.4595132-39.0172399l48.2065071,40.6656788h63.3197187l-86.1072202-72.6370853ZM1779.0675373,38.7169557c28.6279777,0,39.7395915,12.7991931,39.7395915,33.234876,0,25.565827-48.6994123,37.6157263-65.7307854,43.2620809,0,0-20.9536696-16.9360783-20.9536696-42.9362857s18.3168859-33.5606713,46.9448636-33.5606713ZM1770.9235265,248.7372805h-54.1970552c-37.482062,0-48.6523706-20.0355974-48.6523706-36.2553703,0-34.6590056,60.1778699-49.7098033,73.8739523-54.2733354l75.5255137,63.7909155c-6.372866,6.9296972-19.8445485,26.7377902-46.5500401,26.7377902Z"/><path class="c" d="M677.1255146,335.3079911h235.8576198v44.2008869h-185.5617025v80.7740529h179.4651473v44.2008869h-179.4651473v116.5925575h-50.2958842s0-285.7683509-.0000331-285.7683841ZM1184.1797431,348.4907621c-24.641973-12.4425981-53.2209924-18.6732608-85.7324178-18.6732608-32.5175905,0-61.0950852,6.2306627-85.7308268,18.6732608-24.643564,12.4488295-43.8188826,29.7874122-57.5353695,52.0094838-13.7180778,22.228303-20.5755257,48.0739952-20.5755257,77.5371099,0,29.4755775,6.8574479,55.3212697,20.5755257,77.5433413,13.7164868,22.228303,32.8918055,39.5668858,57.5353695,52.0094507,24.6357416,12.4488626,53.21317,18.6732939,85.7308268,18.6732939,32.5113591,0,61.0903785-6.2244313,85.7324178-18.6732939,24.6357416-12.4426312,43.8188826-29.781214,57.5353695-52.0094507,13.7149621-22.2220716,20.5755257-48.0677638,20.5755257-77.5433413,0-29.4631147-6.8605636-55.308807-20.5755257-77.5371099-13.7164868-22.2220716-32.8996279-39.5606544-57.5353695-52.0094838ZM1197.3255272,532.9095676c-9.2758246,15.4986649-22.2922079,27.4298579-39.0554476,35.8185047-16.7663554,8.3824153-36.7103892,12.5735567-59.8227543,12.5735567-22.8613196,0-42.7414485-4.1912077-59.6309733-12.5735567-16.8972809-8.3886467-29.9761107-20.3198398-39.2472286-35.8185047-9.2758246-15.4924666-13.9067431-33.7790496-13.9067431-54.8722118,0-21.0806993,4.6309186-39.3672823,13.9067431-54.8659804,9.2711179-15.4924666,22.3499477-27.4298579,39.2472286-35.8185047,16.8895248-8.3823822,36.7696537-12.5735899,59.6309733-12.5735899,23.1123651,0,43.0563989,4.1912077,59.8227543,12.5735899,16.7632397,8.3886136,29.779623,20.326038,39.0554476,35.8185047,9.2680022,15.498698,13.9067431,33.785281,13.9067431,54.8659804,0,21.0931953-4.6386746,39.3797783-13.9067431,54.8722118ZM1493.9260844,495.7626164c15.1104624-7.2410431,26.9230601-17.2762026,35.4334179-30.1055115,8.5086342-12.8230444,12.7669288-27.6232299,12.7669288-44.3879943,0-17.2762026-4.2582946-32.3258426-12.7669288-45.1551185-8.5102252-12.8230444-20.3229555-22.858237-35.4334179-30.099247-15.1166938-7.2410431-32.7109626-10.8584324-52.7751164-10.8584324h-155.839753v285.7683509h50.2958842v-114.3098462h57.4823363l96.0732138,114.3098462h60.2016097l-97.3969205-114.7214827c15.6218343-1.0852234,29.6284123-4.5404639,41.9587459-10.4405645ZM1335.6071655,463.9419473v-85.3519383h100.9738057c16.7648307,0,30.0353089,3.7546125,39.8179313,11.2388788,9.7748,7.4967622,14.6676359,17.9747482,14.6676359,31.4401895,0,13.2097553-4.8928359,23.6191298-14.6676359,31.2406192-9.7826224,7.6214895-23.0531006,11.4322176-39.8179313,11.4322176,0,0-100.9738057,0-100.9738057.0000331ZM1962.7801207,335.1562795v285.7683178h-48.0116813v-238.0748352l-117.3565991,238.0748352h-53.7261329l-117.3565991-237.7380086v237.7380086h-48.0100903v-285.7683509h76.9680314l115.4324248,238.0810335,115.0910241-238.0810666h76.9694898l.0001326.0000663Z"/></svg>