<?xml version="1.0" encoding="UTF-8"?><svg id="a" xmlns="http://www.w3.org/2000/svg" viewBox="0 0 1285.6546061 296.4459404"><defs><style>.c{fill:#ff7300;}</style></defs><path class="c" d="M0,5.4904898h235.8576198v44.2008869H50.2959173v80.7740529h179.4651473v44.2008869H50.2959173v116.5925575H.0000331S.0000331,5.4905229,0,5.4904898ZM507.0542285,18.6732608C482.4122555,6.2306627,453.8332361,0,421.3218107,0c-32.5175905,0-61.0950852,6.2306627-85.7308268,18.6732608-24.643564,12.4488295-43.8188826,29.7874122-57.5353695,52.0094838-13.7180778,22.228303-20.5755257,48.0739952-20.5755257,77.5371099,0,29.4755775,6.8574479,55.3212697,20.5755257,77.5433413,13.7164868,22.228303,32.8918055,39.5668858,57.5353695,52.0094507,24.6357416,12.4488626,53.21317,18.6732939,85.7308268,18.6732939,32.5113591,0,61.0903785-6.2244313,85.7324178-18.6732939,24.6357416-12.4426312,43.8188826-29.781214,57.5353695-52.0094507,13.7149621-22.2220716,20.5755257-48.0677638,20.5755257-77.5433413,0-29.4631147-6.8605636-55.308807-20.5755257-77.5371099-13.7164868-22.2220716-32.8996279-39.5606544-57.5353695-52.0094838ZM520.2000126,203.0920663c-9.2758246,15.4986649-22.2922079,27.4298579-39.0554476,35.8185047-16.7663554,8.3824153-36.7103892,12.5735567-59.8227543,12.5735567-22.8613196,0-42.7414485-4.1912077-59.6309733-12.5735567-16.8972809-8.3886467-29.9761107-20.3198398-39.2472286-35.8185047-9.2758246-15.4924666-13.9067431-33.7790496-13.9067431-54.8722118,0-21.0806993,4.6309186-39.3672823,13.9067431-54.8659804,9.2711179-15.4924666,22.3499477-27.4298579,39.2472286-35.8185047,16.8895248-8.3823822,36.7696537-12.5735899,59.6309733-12.5735899,23.1123651,0,43.0563989,4.1912077,59.8227543,12.5735899,16.7632397,8.3886136,29.779623,20.326038,39.0554476,35.8185047,9.2680022,15.498698,13.9067431,33.785281,13.9067431,54.8659804,0,21.0931953-4.6386746,39.3797783-13.9067431,54.8722118ZM816.8005698,165.945115c15.1104624-7.2410431,26.9230601-17.2762026,35.4334179-30.1055115,8.5086342-12.8230444,12.7669288-27.6232299,12.7669288-44.3879943,0-17.2762026-4.2582946-32.3258426-12.7669288-45.1551185-8.5102252-12.8230444-20.3229555-22.858237-35.4334179-30.099247-15.1166938-7.2410431-32.7109626-10.8584324-52.7751164-10.8584324h-155.839753v285.7683509h50.2958842v-114.3098462h57.4823363l96.0732138,114.3098462h60.2016097l-97.3969205-114.7214827c15.6218343-1.0852234,29.6284123-4.5404639,41.9587459-10.4405645ZM658.4816509,134.124446V48.7725078h100.9738057c16.7648307,0,30.0353089,3.7546125,39.8179313,11.2388788,9.7748,7.4967622,14.6676359,17.9747482,14.6676359,31.4401895,0,13.2097553-4.8928359,23.6191298-14.6676359,31.2406192-9.7826224,7.6214895-23.0531006,11.4322176-39.8179313,11.4322176,0,0-100.9738057,0-100.9738057.0000331ZM1285.6546061,5.3387782v285.7683178h-48.0116813V53.0322607l-117.3565991,238.0748352h-53.7261329l-117.3565991-237.7380086v237.7380086h-48.0100903V5.338745h76.9680314l115.4324248,238.0810335L1208.6849837,5.3387119h76.9694898l.0001326.0000663Z"/></svg>