<?xml version="1.0" encoding="UTF-8"?><svg id="a" xmlns="http://www.w3.org/2000/svg" viewBox="0 0 1962.7788628 291.1071291"><defs><style>.c{fill:#ff7300;}</style></defs><path class="c" d="M0,5.3387782h50.2974545v285.7683509H0V5.3387782ZM345.0562994,5.3387782h48.7725409v285.7683509h-64.0124041L149.5888548,59.4875146v231.6196145h-48.7725326V5.3387782h65.5373136l178.7026636,228.9315271V5.3387782ZM677.1242567,5.3387782h50.2943595v285.7683509h-50.2943595v-121.9251043h-182.1329785v121.9251043h-50.2943263V5.3387782h50.2943263v119.6423847h182.1329785V5.3387782ZM884.5883736,5.3387782l-137.1680501,285.7683509h53.7246081l30.6169497-65.5310739h168.530314l30.613834,65.5310739h53.7246081L947.4594718,5.3387782h-62.8710982ZM851.1617291,184.044574l64.8637515-138.8582654,64.8637515,138.8582654h-129.727503ZM1154.7364481,246.9124902h192.8027124v44.1946389h-243.1001876V5.3387782h50.2974752v241.573712ZM1292.4767255,5.3387782h286.5323925v44.1946472h-118.1190828v241.5737038h-50.2943595V49.5334253h-118.1190828V5.3387782h.0001326ZM1876.6716426,218.4700438l68.4464781-86.1811339h-56.3759894l-45.851038,57.684795-55.3738233-46.55127c38.4605478-12.7506975,81.1724801-28.8147656,81.1724801-71.6497544S1833.8957196,0,1775.0221743,0c-66.864844,0-95.2038014,36.8926578-95.2038014,71.1814391,0,31.6899632,16.3803019,45.5691701,28.3402504,58.5498512-15.2141018,5.942038-90.38014,22.09799-90.38014,82.6598276,0,61.8075391,49.9831674,77.0675724,85.7759535,77.0675724h84.238687c31.726808,0,56.7826892-31.0751753,63.4595132-39.0172399l48.2065071,40.6656788h63.3197187l-86.1072202-72.6370853ZM1779.0662794,38.7169557c28.6279777,0,39.7395915,12.7991931,39.7395915,33.234876,0,25.565827-48.6994123,37.6157263-65.7307854,43.2620809,0,0-20.9536696-16.9360783-20.9536696-42.9362857s18.3168859-33.5606713,46.9448636-33.5606713ZM1770.9222686,248.7372805h-54.1970552c-37.482062,0-48.6523706-20.0355974-48.6523706-36.2553703,0-34.6590056,60.1778699-49.7098033,73.8739523-54.2733354l75.5255137,63.7909155c-6.372866,6.9296972-19.8445485,26.7377902-46.5500401,26.7377902Z"/></svg>